<?xml version="1.0" encoding="UTF-8"?>
<svg width="32" height="32" viewBox="0 0 32 32" fill="none" xmlns="http://www.w3.org/2000/svg">
  <path d="M16 2C8.27 2 2 8.27 2 16C2 23.73 8.27 30 16 30C23.73 30 30 23.73 30 16C30 8.27 23.73 2 16 2ZM16 28C9.37 28 4 22.63 4 16C4 9.37 9.37 4 16 4C22.63 4 28 9.37 28 16C28 22.63 22.63 28 16 28Z" fill="black"/>
  <path d="M16 6L12 12H20L16 6Z" fill="black"/>
  <path d="M16 26L12 20H20L16 26Z" fill="black"/>
  <path d="M16 10C13.79 10 12 11.79 12 14C12 16.21 13.79 18 16 18C18.21 18 20 16.21 20 14C20 11.79 18.21 10 16 10Z" fill="black"/>
</svg> 